<svg id="Layer_1" xmlns="http://www.w3.org/2000/svg" viewBox="0 0 320.7 83.7"><style>.st0{fill:#3a3a3a}.st1{fill:#f27d3a}</style><path class="st0" d="M175.5 42.3h-5.3l.2 1.1s.6 2.7.6 5.9v3.3c0 1.7-.3 3.1-4 3.1-5.5 0-12.1-2.4-12.1-13.8 0-7.3 5.1-12.6 12.2-12.6 4.5 0 8.7 1.3 11.1 3.3l.3.2h1.5v-3.7c0-4.4-3.7-9.2-11.9-9.2-13.8 0-23.4 9.5-23.4 23.1 0 6.5 2.2 12 6.4 16.1 3.9 3.8 9.3 5.9 15 5.9 9.8 0 14.6-3.7 14.6-11.3V47c-.1-2.2-2.3-4.7-5.2-4.7zm-42-21.7h-4V45c0 7.2-2.3 10.4-7.3 10.4-5.6 0-8-3.2-8-10.7V29.2c0-5.4-2.2-8.6-6-8.6h-4.1v24.6c0 6.1 1.6 11.1 4.7 14.6 3 3.4 7.4 5.2 12.6 5.2 6 0 10.7-1.9 13.8-5.5 3-3.5 4.5-8.5 4.5-15V29c-.1-2.5-.7-8.4-6.2-8.4zm-41.6 0h-3.6v31.2c0 3-1.1 4.1-4.2 4.1-2.2 0-4.5-.5-5.7-1.2l-.2-.1h-1.4v4.8c0 3.3 3.7 5.7 8.5 5.7 8.2 0 13.1-4.8 13.1-12.9v-25c0-4.2-2.3-6.6-6.5-6.6zm111.8.1c-5.5 0-9.8 1.5-12.9 4.6-3.5 3.5-5.3 8.8-5.3 15.9v15.5c0 2.5.6 8.4 6.1 8.4h4V40.7c0-7.2 2.3-10.4 7.3-10.4 5.6 0 8 3.2 8 10.7v15.5c0 5.4 2.2 8.6 6 8.6h4.1V40.5c0-6.1-1.6-11.1-4.7-14.6-3-3.4-7.3-5.2-12.6-5.2zm101.4 5c-3.6-3.8-8.5-5.8-13.8-5.8-12.5 0-20.6 9.1-20.6 23.2 0 6.2 2 11.8 5.7 15.8 3.6 3.9 8.6 6.1 14 6.1 6.3 0 11.5-2.3 15.2-6.7 3.5-4.2 5.3-9.9 5.3-16.5.1-6.5-1.9-12-5.8-16.1zM291.2 56c-7-.1-10.2-4.6-10.2-14.2 0-7.7 3.7-12.7 9.5-12.7 8.5 0 10.2 7.6 10.2 13.9 0 8.4-3.3 13-9.5 13zm-44.6-36.1c-12.5 0-20.6 9.1-20.6 23.2 0 6.2 2 11.8 5.7 15.8 3.6 3.9 8.6 6.1 14 6.1 6.3 0 11.5-2.3 15.2-6.7 3.5-4.2 5.3-9.9 5.3-16.5 0-6.5-2-12.1-5.9-16.1-3.5-3.7-8.4-5.8-13.7-5.8zm-.1 36.1c-7-.1-10.2-4.6-10.2-14.2 0-7.7 3.7-12.7 9.5-12.7 8.5 0 10.2 7.6 10.2 13.9 0 8.4-3.4 13-9.5 13z"/><path class="st1" d="M69.6 20.4c-.1-.3-.2-.7-.3-1.1V19c0-.1-.1-.2-.2-.3l-.2-.4c-.3-.6-.7-1.2-1.2-1.8-.9-1.1-2.2-1.8-3.6-2.1-.3 0-.6-.1-.9-.1-.4 0-.8 0-1.2.1-.6.2-1.2.4-1.8.8-1.1.6-1.9 1.5-2.5 2.3-1.4 1.6-2.3 3.3-3.1 4.8-1.5 3-2.5 5.4-3.2 7.2-.2.4-.3.8-.4 1.1-.7-.6-1.5-1.2-2.4-1.9-.2-.1-.3-.2-.5-.3-.6-.4-1.2-.8-1.9-1.2-.4-.2-.8-.5-1.2-.7s-.8-.5-1.2-.7c-1.5-.8-3.2-1.7-5-2.5-1.7-.8-3.5-1.4-5.3-2-1.7-.6-3.5-1-5.5-1.3-4.1-.6-8-.3-11.5.8-1 .3-1.9.7-2.8 1.1-.2.1-.4.2-.7.4-.2.1-.4.2-.6.4-.4.3-.8.6-1.2 1-.8.7-1.5 1.6-2 2.5s-.9 2-1 3.1-.1 2.2.2 3.3c.2 1 .6 2 1.2 2.9.9 1.7 2.2 3.2 3.9 4.6 2.7 2.3 6 4 10.1 5.2 1.9.6 3.6 1 5.4 1.2h.1c0 .4-.1 1-.1 1.7 0 1.2.1 2.3.2 3.4.2 1.7.6 3.2 1 4.5.7 2 1.5 3.6 2.5 5.2 1.1 1.8 2.6 3.5 4.5 5 1.9 1.6 4.2 2.9 6.6 3.8 1.9.7 3.8 1 5.7 1 .9 0 1.9-.1 2.7-.3.7-.1 1.5-.4 2.2-.7.8-.3 1.5-.7 2.1-1.1 1.4-.9 2.6-2 3.5-3.3.2-.2.3-.4.5-.6.1-.1.2-.2.3-.4.2-.3.4-.7.6-1.1.2-.4.4-.8.6-1.1l.1-.1.2-.5c.1-.2.1-.4.2-.6.6-1.6.9-3.3 1.1-5 .2-3.4-.3-7-1.5-10.4-.1-.4-.3-.9-.5-1.3l-.6-1.2-1.2-2.4c-.4-.8-.9-1.6-1.4-2.5 1.2-.9 2.4-1.8 3.6-2.9 1.2-1 2.3-2.1 3.3-3.2.1-.1.2-.3.4-.4l.4-.4.7-.8c.6-.7 1-1.3 1.4-1.8.9-1.3 1.5-2.8 1.8-4.2-.1-1.5-.1-3-.4-4.4zM34 40.1c-1.4-.1-2.9-.2-4.4-.5l-.5-.1h-.3l-.9-.2-.5-.1c-.9-.2-1.6-.4-2.2-.6-1.5-.5-2.8-1.1-4.1-1.7-1.3-.7-2.5-1.5-3.4-2.3-1-.9-1.7-1.8-2.1-2.6-.2-.5-.3-.8-.4-1-.1-.3 0-.5 0-.6v-.1c0-.2.7-1.5 3.3-2.2 1.2-.4 2.6-.6 4.1-.7 1.4-.1 2.9 0 4.4.2 1.5.2 3 .5 4.5.9 1.4.4 2.9.9 4.5 1.6l1.1.5 1.1.5 2.1 1.1.6.3.6.3 1.1.6c.7.4 1.3.8 1.9 1.2 1.3.8 2.4 1.8 3.4 2.8-4.3 1.8-8.7 2.7-12.9 2.7h-1zm0 6.9c3.5 0 7-.5 10.4-1.5 2.7-.8 5.4-1.9 7.8-3.2.5.7.9 1.4 1.4 2.2.4.6.7 1.3 1.1 2.1l.4.7v.1l.1.5h.2c0 .1.1.2.1.2.1.2.2.3.2.5 1 2.5 1.6 5.2 1.5 7.7 0 1.3-.2 2.5-.5 3.5l-.1.3h-.3v.5l-.3.6-.1.2c0 .1-.1.2-.2.3-.1.1-.1.3-.2.4l-.1.1c-.1.2-.2.4-.3.5v.1c-1.1 1.7-2.6 2.8-4.5 3.4-1.8.5-3.9.4-6-.1-.1 0-.3-.1-.4-.1-.1 0-.2-.1-.4-.1-.2-.1-.5-.2-.7-.2l-.4-.2-.7-.9c-.8-.4-1.7-.9-2.6-1.5-1.5-1-2.9-2.3-4.1-3.8-1-1.2-1.9-2.6-2.6-4.2-1-2.2-1.6-4.6-1.8-7 0-.3 0-.5-.1-.7 0-.3 0-.5-.1-.7 1.3.2 2.3.3 3.3.3zm23-23.2c.8-1.3 1.9-2.7 3.1-3.9.3-.3.6-.5.9-.8l.9-.6c.6-.2.8-.2 1.3-.1.5.2.8.4 1.1.9.2.3.4.6.5.9l.1.3-.1.2.1.1v.4c.1.8 0 1.7-.3 2.4-.3.8-.7 1.6-1.3 2.5l-.2.3-.1.4-.2.2-.1.1-.1.1-.4.4-.1.1-.1.1-1 1c-.9.9-2 1.8-3.1 2.6-1.3 1-2.5 1.8-3.6 2.6-.6-.7-1.2-1.4-1.9-2 .2-.4.5-.9.8-1.6 1.1-2.2 2.4-4.4 3.8-6.6z"/></svg>